# xmcd
#
# Track frame offsets:
#       183
#       16838
#       31035
#       47483
#       69503
#       87383
#       104588
#       120663
#       134783
#       153408
#       176283
#       196578
#       218485
#       232533
#       251305
#       267263
#       281608
#       299160
#       313655
#       327548
#       342380
#
# Disc length: 4782 seconds
#
# Revision: 1
# Processed by: cddbd v1.4PL0 Copyright (c) Steve Scherf et al.
# Submitted via: MusiCat 1.1
#
DISCID=2a12ac15
DTITLE=Earl King and Roomful of Blues - Glazed
DYEAR=1986
DGENRE=
TTITLE0=
TTITLE1=
TTITLE2=
TTITLE3=
TTITLE4=
TTITLE5=
TTITLE6=
TTITLE7=
TTITLE8=
TTITLE9=
TTITLE10=It all went down the drain
TTITLE11=Your love was never there
TTITLE12=Eeverybody's gotta cry sometime
TTITLE13=Love Rent
TTITLE14=Three can play the game
TTITLE15=Iron Cupid
TTITLE16=Somebody's got a Tail
TTITLE17=I met a stranger
TTITLE18=Mardi Gras in the City
TTITLE19=Those lonely lonely nights
TTITLE20=One Step beyond Love
EXTD=1986\n\n\nsubmitted by Stamppot
EXTT0=
EXTT1=
EXTT2=
EXTT3=
EXTT4=
EXTT5=
EXTT6=
EXTT7=
EXTT8=
EXTT9=
EXTT10=
EXTT11=
EXTT12=
EXTT13=
EXTT14=
EXTT15=
EXTT16=
EXTT17=
EXTT18=
EXTT19=
EXTT20=
PLAYORDER=
